<!DOCTYPE svg PUBLIC "-//W3C//DTD SVG 1.1//EN" "http://www.w3.org/Graphics/SVG/1.1/DTD/svg11.dtd">
<!-- Uploaded to: SVG Repo, www.svgrepo.com, Transformed by: SVG Repo Mixer Tools -->
<svg fill="#ffffff" width="256px" height="256px" viewBox="-3.2 -3.2 38.40 38.40" style="fill-rule:evenodd;clip-rule:evenodd;stroke-linejoin:round;stroke-miterlimit:2;" version="1.1" xml:space="preserve" xmlns="http://www.w3.org/2000/svg" xmlns:serif="http://www.serif.com/" xmlns:xlink="http://www.w3.org/1999/xlink" stroke="#ffffff" stroke-width="0.00032" transform="matrix(1, 0, 0, 1, 0, 0)rotate(0)">
<g id="SVGRepo_bgCarrier" stroke-width="0" transform="translate(0,0), scale(1)">
<path transform="translate(-3.2, -3.2), scale(1.2)" d="M16,28.74759832131011C18.249346349284952,29.059173350786736,20.348581482737362,31.334146532768667,22.486936369367356,30.56989763557579C24.566750580896556,29.8265711992272,25.199195617110778,27.126116855290043,26.13480144203028,25.12541620655965C26.92800482738131,23.42922911005083,27.24457485203451,21.599597866681098,27.546027167412504,19.751531639932555C27.817435206428453,18.087653125864787,27.848636002963165,16.442747961800425,27.826068755483853,14.757030087255561C27.80188986772369,12.950926648133082,28.137248841630804,11.066148388035216,27.40763263138851,9.413800229451489C26.664101216654633,7.729938568021727,25.008358875229067,6.697720273461633,23.696995304701403,5.405994820657478C22.21689998883525,3.94806443807775,21.09886276628864,1.93326507935598,19.132527355650296,1.262617483842714C17.160943275129892,0.5901797523145011,15.02646780899698,1.4121128615357985,12.970555652172425,1.7475849062210553C10.842587581681181,2.0948146247977717,8.268092286415666,1.74110843010287,6.759522606333345,3.281573978834622C5.191123717705175,4.883133712203398,6.206932332423236,7.75888374611455,5.148587369752992,9.734933996839178C4.1338400846722845,11.62958243173766,1.3827717509908881,12.33309401128738,0.8031760871128828,14.402749444168842C0.23550367554636598,16.429828602826685,1.3527439684152671,18.55048273514904,2.1322345149512145,20.50591014883123C2.884917128425939,22.39408727006917,3.8690351855467835,24.18951977238512,5.285584102866631,25.647303406067945C6.6798825364943415,27.082188860541194,8.344811802373714,28.321060304402675,10.266711780855871,28.877176175589497C12.123253154339457,29.414380054495098,14.085577792723333,28.48241632483698,16,28.74759832131011" fill="#9d4dff" strokewidth="0"/>
</g>
<g id="SVGRepo_tracerCarrier" stroke-linecap="round" stroke-linejoin="round" stroke="#feb8ff" stroke-width="0.192"/>
<g id="SVGRepo_iconCarrier">
<path d="M18.448,26.655c0.001,-0.001 0.001,-0.001 0.001,-0.002c2.407,-3.406 6.792,-9.888 8.717,-14.401c0.535,-1.252 0.882,-2.367 0.983,-3.246c0.088,-0.778 -0.016,-1.414 -0.263,-1.881c-0.359,-0.676 -1.158,-1.309 -2.339,-1.783c-2.201,-0.881 -5.872,-1.342 -9.545,-1.342c-3.673,-0 -7.344,0.461 -9.545,1.342c-1.181,0.474 -1.98,1.107 -2.338,1.783c-0.248,0.467 -0.352,1.103 -0.263,1.881c0.1,0.879 0.447,1.994 0.982,3.246c1.925,4.513 6.31,10.995 8.716,14.402c0.001,0 0.001,0.001 0.001,0.002c0.563,0.792 1.475,1.263 2.447,1.263c0.972,-0 1.884,-0.471 2.446,-1.264Zm-2.455,-17.699l-0.001,0.055l-0,4.601c-0.236,-0.066 -0.485,-0.101 -0.742,-0.101c-1.518,-0 -2.75,1.232 -2.75,2.75c-0,1.517 1.232,2.75 2.75,2.75c1.518,-0 2.75,-1.233 2.75,-2.75c-0,-0.073 -0.008,-4.835 -0.008,-4.835l1.301,1.301c0.39,0.39 1.024,0.39 1.414,-0c0.39,-0.391 0.39,-1.024 0,-1.414l-3.008,-3.009c-0.39,-0.39 -1.024,-0.39 -1.414,0c-0.182,0.181 -0.279,0.415 -0.292,0.652Z"/>
</g>
</svg>